<svg xmlns="http://www.w3.org/2000/svg" xmlns:xlink="http://www.w3.org/1999/xlink" width="50" zoomAndPan="magnify" viewBox="0 0 37.5 37.499999" height="50" preserveAspectRatio="xMidYMid meet" version="1.2"><defs><clipPath id="e942d81613"><path d="M 1.851562 3.699219 L 35.15625 3.699219 L 35.15625 32.566406 L 1.851562 32.566406 Z M 1.851562 3.699219 "/></clipPath></defs><g id="a5ec304f52"><g clip-rule="nonzero" clip-path="url(#e942d81613)"><path style=" stroke:none;fill-rule:nonzero;fill:#5ce1e6;fill-opacity:1;" d="M 26.828125 32.542969 L 10.175781 32.542969 L 1.851562 18.121094 L 10.175781 3.703125 L 26.828125 3.703125 L 35.15625 18.121094 Z M 10.503906 31.976562 L 26.503906 31.976562 L 34.5 18.121094 L 26.503906 4.265625 L 10.503906 4.265625 L 2.503906 18.121094 Z M 10.503906 31.976562 "/></g><path style=" stroke:none;fill-rule:nonzero;fill:#5ce1e6;fill-opacity:1;" d="M 26.027344 31.15625 L 10.976562 31.15625 L 3.453125 18.121094 L 10.976562 5.085938 L 26.027344 5.085938 L 33.554688 18.121094 Z M 11.304688 30.589844 L 25.703125 30.589844 L 32.902344 18.121094 L 25.703125 5.652344 L 11.304688 5.652344 L 4.105469 18.121094 Z M 11.304688 30.589844 "/></g></svg>