<svg xmlns="http://www.w3.org/2000/svg" xmlns:xlink="http://www.w3.org/1999/xlink" width="50" zoomAndPan="magnify" viewBox="0 0 37.5 37.499999" height="50" preserveAspectRatio="xMidYMid meet" version="1.2"><defs><clipPath id="5c5f7bc117"><path d="M 1.851562 4.078125 L 35.15625 4.078125 L 35.15625 32.941406 L 1.851562 32.941406 Z M 1.851562 4.078125 "/></clipPath></defs><g id="1e7feeb46d"><g clip-rule="nonzero" clip-path="url(#5c5f7bc117)"><path style=" stroke:none;fill-rule:nonzero;fill:#ff2e00;fill-opacity:1;" d="M 26.828125 32.921875 L 10.175781 32.921875 L 1.851562 18.5 L 10.175781 4.078125 L 26.828125 4.078125 L 35.15625 18.5 Z M 10.503906 32.355469 L 26.503906 32.355469 L 34.5 18.5 L 26.503906 4.644531 L 10.503906 4.644531 L 2.503906 18.5 Z M 10.503906 32.355469 "/></g><path style=" stroke:none;fill-rule:nonzero;fill:#ff2e00;fill-opacity:1;" d="M 26.027344 31.535156 L 10.976562 31.535156 L 3.453125 18.5 L 10.976562 5.464844 L 26.027344 5.464844 L 33.554688 18.5 Z M 11.304688 30.96875 L 25.703125 30.96875 L 32.902344 18.5 L 25.703125 6.03125 L 11.304688 6.03125 L 4.105469 18.5 Z M 11.304688 30.96875 "/></g></svg>