<svg xmlns="http://www.w3.org/2000/svg" xmlns:xlink="http://www.w3.org/1999/xlink" width="250" zoomAndPan="magnify" viewBox="0 0 187.5 187.499992" height="250" preserveAspectRatio="xMidYMid meet" version="1.2"><defs><clipPath id="39ea775bc7"><path d="M 28.890625 18.699219 L 158.296875 18.699219 L 158.296875 168.300781 L 28.890625 168.300781 Z M 28.890625 18.699219 "/></clipPath><clipPath id="8fa035b6d9"><path d="M 76.671875 78.921875 L 110.332031 78.921875 L 110.332031 108.09375 L 76.671875 108.09375 Z M 76.671875 78.921875 "/></clipPath></defs><g id="cf93e39b8b"><g clip-rule="nonzero" clip-path="url(#39ea775bc7)"><path style=" stroke:none;fill-rule:nonzero;fill:#737373;fill-opacity:1;" d="M 28.714844 130.898438 L 28.714844 56.097656 L 93.496094 18.695312 L 158.277344 56.097656 L 158.277344 130.898438 L 93.496094 168.300781 Z M 31.257812 57.5625 L 31.257812 129.433594 L 93.496094 165.367188 L 155.738281 129.433594 L 155.738281 57.5625 L 93.496094 21.628906 Z M 31.257812 57.5625 "/></g><path style=" stroke:none;fill-rule:nonzero;fill:#737373;fill-opacity:1;" d="M 34.941406 127.304688 L 34.941406 59.691406 L 93.496094 25.886719 L 152.050781 59.691406 L 152.050781 127.304688 L 93.496094 161.109375 Z M 37.484375 61.160156 L 37.484375 125.835938 L 93.496094 158.175781 L 149.511719 125.835938 L 149.511719 61.160156 L 93.496094 28.820312 Z M 37.484375 61.160156 "/><g clip-rule="nonzero" clip-path="url(#8fa035b6d9)"><path style=" stroke:none;fill-rule:nonzero;fill:#5ce1e6;fill-opacity:1;" d="M 101.914062 108.070312 L 85.085938 108.070312 L 76.671875 93.496094 L 85.085938 78.921875 L 101.914062 78.921875 L 110.328125 93.496094 Z M 85.414062 107.5 L 101.585938 107.5 L 109.667969 93.496094 L 101.585938 79.492188 L 85.414062 79.492188 L 77.332031 93.496094 Z M 85.414062 107.5 "/></g><path style=" stroke:none;fill-rule:nonzero;fill:#5ce1e6;fill-opacity:1;" d="M 101.105469 106.671875 L 85.894531 106.671875 L 78.289062 93.496094 L 85.894531 80.324219 L 101.105469 80.324219 L 108.710938 93.496094 Z M 86.222656 106.097656 L 100.777344 106.097656 L 108.050781 93.496094 L 100.777344 80.894531 L 86.222656 80.894531 L 78.949219 93.496094 Z M 86.222656 106.097656 "/></g></svg>